<svg preserveAspectRatio="none" overflow="visible" style="display: block;" width="16" height="16" viewBox="0 0 16 16" fill="none" xmlns="http://www.w3.org/2000/svg">
<g id="Image">
<path id="Vector" d="M14.4733 5.80667C15.3067 4.97333 14.9267 4 14.4733 3.52667L12.4733 1.52667C11.6333 0.693333 10.6667 1.07333 10.1933 1.52667L9.06 2.66667H7.33333C6.06667 2.66667 5.33333 3.33333 4.96 4.1L2 7.06V9.72667L1.52667 10.1933C0.693333 11.0333 1.07333 12 1.52667 12.4733L3.52667 14.4733C3.88667 14.8333 4.27333 14.9667 4.64 14.9667C5.11333 14.9667 5.54667 14.7333 5.80667 14.4733L7.60667 12.6667H10C11.1333 12.6667 11.7067 11.96 11.9133 11.2667C12.6667 11.0667 13.08 10.4933 13.2467 9.93333C14.28 9.66667 14.6667 8.68667 14.6667 8V6H14.2733L14.4733 5.80667ZM13.3333 8C13.3333 8.3 13.2067 8.66667 12.6667 8.66667H12V9.33333C12 9.63333 11.8733 10 11.3333 10H10.6667V10.6667C10.6667 10.9667 10.54 11.3333 10 11.3333H7.06L4.87333 13.52C4.66667 13.7133 4.54667 13.6 4.47333 13.5267L2.48 11.54C2.28667 11.3333 2.4 11.2133 2.47333 11.14L3.33333 10.2733V7.60667L4.66667 6.27333V7.33333C4.66667 8.14 5.2 9.33333 6.66667 9.33333C8.13333 9.33333 8.66667 8.14 8.66667 7.33333H13.3333V8ZM13.5267 4.86L12.3933 6H7.33333V7.33333C7.33333 7.63333 7.20667 8 6.66667 8C6.12667 8 6 7.63333 6 7.33333V5.33333C6 5.02667 6.11333 4 7.33333 4H9.60667L11.1267 2.48C11.3333 2.28667 11.4533 2.4 11.5267 2.47333L13.52 4.46C13.7133 4.66667 13.6 4.78667 13.5267 4.86Z" fill="white"/>
</g>
</svg>
